<svg xmlns="http://www.w3.org/2000/svg" width="320" height="400" viewBox="0 0 320 400" role="img" aria-labelledby="title desc">
  <title id="title">Scatola articolo 101007S</title>
  <desc id="desc">Illustrazione stilizzata di una scatola oro con maniglia</desc>
  <defs>
    <linearGradient id="body" x1="0%" y1="0%" x2="0%" y2="100%">
      <stop offset="0%" stop-color="#d3b05a" />
      <stop offset="50%" stop-color="#c29a3b" />
      <stop offset="100%" stop-color="#b48526" />
    </linearGradient>
    <linearGradient id="lid" x1="0%" y1="0%" x2="0%" y2="100%">
      <stop offset="0%" stop-color="#e2c77a" />
      <stop offset="100%" stop-color="#cda64a" />
    </linearGradient>
    <filter id="shadow" x="-20%" y="-20%" width="140%" height="140%" color-interpolation-filters="sRGB">
      <feDropShadow dx="0" dy="8" stdDeviation="12" flood-color="#000000" flood-opacity="0.25" />
    </filter>
  </defs>
  <g filter="url(#shadow)">
    <path fill="url(#body)" d="M45 130h230l20 220c1.4 16-10.5 30-26.6 30H51.6C35.5 380 23.6 366 25 350l20-220z" />
    <path fill="url(#lid)" d="M55 50h210l30 90H25z" />
    <path fill="#b8862f" opacity="0.55" d="M160 130h115l20 220c1.4 16-10.5 30-26.6 30H160z" />
    <path fill="#debf6b" opacity="0.5" d="M55 50h210l6 18H49z" />
    <path fill="#a87422" opacity="0.4" d="M160 50h105l30 90H160z" />
    <path fill="#f4e0a3" d="M145 55h30c9 0 16 7 16 16v24c0 7-6 13-13 13h-36c-7 0-13-6-13-13v-24c0-9 7-16 16-16z" />
    <path fill="#c19334" d="M138 78h44c3 0 5 2 5 5 0 3-2 5-5 5h-44c-3 0-5-2-5-5 0-3 2-5 5-5z" />
    <path fill="#6c4c16" opacity="0.3" d="M25 140h120v240H37.4C21.3 380 9.4 366 10.8 350z" />
  </g>
</svg>
